<svg width="17" height="16" viewBox="0 0 17 16" fill="none" xmlns="http://www.w3.org/2000/svg">
<path opacity="0.5" fill-rule="evenodd" clip-rule="evenodd" d="M8.5 13.9999C7.98839 13.9999 7.48962 13.9537 7.00472 13.8734L3.50005 16.0001V12.4596C1.67274 11.1767 0.49999 9.20951 0.49999 6.99994C0.49999 3.13404 4.08176 -2.80142e-05 8.5 -2.80142e-05C12.9183 -2.80142e-05 16.5 3.13404 16.5 6.99994C16.5 10.8661 12.9183 13.9999 8.5 13.9999ZM8.5 1.00014C4.63401 1.00014 1.5 3.68641 1.5 6.99994C1.5 9.03322 2.68285 10.8268 4.48764 11.9121L4.4561 14.2313L6.80987 12.8165C7.35203 12.932 7.91612 13 8.5 13C12.366 13 15.5001 10.3138 15.5001 6.99994C15.5001 3.68641 12.366 1.00014 8.5 1.00014ZM12 6.50002H5.00001C4.72387 6.50002 4.49999 6.27605 4.49999 6.00006C4.49999 5.72379 4.72387 5.5 5.00001 5.5H12C12.2761 5.5 12.5 5.72379 12.5 6.00006C12.5 6.27605 12.2761 6.50002 12 6.50002ZM6.00002 8.50002H11C11.2762 8.50002 11.5001 8.72385 11.5001 8.99999C11.5001 9.27627 11.2762 9.5001 11 9.5001H6.00002C5.72382 9.5001 5.50001 9.27627 5.50001 8.99999C5.50001 8.72385 5.72382 8.50002 6.00002 8.50002Z" fill="white"/>
</svg>
